<?xml version="1.0" standalone="no"?>
<!DOCTYPE svg PUBLIC "-//W3C//DTD SVG 20010904//EN"
 "http://www.w3.org/TR/2001/REC-SVG-20010904/DTD/svg10.dtd">
<svg version="1.0" xmlns="http://www.w3.org/2000/svg"
 width="512.000000pt" height="512.000000pt" viewBox="0 0 512.000000 512.000000"
 preserveAspectRatio="xMidYMid meet">
<metadata>
Created by potrace 1.14, written by Peter Selinger 2001-2017
</metadata>
<g transform="translate(0.000000,512.000000) scale(0.100000,-0.100000)"
fill="#000000" stroke="none">
<path d="M1864 4424 c-591 -591 -694 -697 -683 -710 7 -9 269 -272 583 -585
l570 -570 -352 -352 c-194 -194 -352 -356 -352 -360 0 -5 49 -58 109 -117
l110 -109 356 356 355 356 355 -356 356 -356 114 113 114 113 -357 356 -357
357 584 584 583 584 -696 696 -696 696 -696 -696z m1163 -226 c255 -255 463
-467 463 -472 0 -5 -210 -218 -466 -474 l-465 -466 -469 470 -469 469 467 468
c257 257 469 467 472 467 3 0 213 -208 467 -462z"/>
<path d="M4123 3441 c-32 -32 -83 -84 -113 -115 l-55 -56 355 -355 355 -355
-469 -469 -470 -470 110 -110 c60 -61 112 -111 116 -111 5 0 269 261 588 580
l580 580 -469 469 -470 470 -58 -58z"/>
<path d="M463 3024 l-463 -464 580 -580 c319 -319 583 -580 586 -580 4 0 56
50 117 111 l110 111 -469 469 -469 469 355 355 355 355 -110 110 c-60 60 -114
110 -120 109 -5 0 -218 -210 -472 -465z"/>
<path d="M1508 1281 c-60 -60 -108 -112 -108 -115 0 -3 261 -267 580 -586
l580 -580 580 580 c319 319 580 583 580 586 0 3 -50 56 -110 117 l-111 111
-469 -469 -470 -470 -468 468 c-257 257 -469 467 -472 467 -3 0 -53 -49 -112
-109z"/>
</g>
</svg>
