<svg width="232" height="100" viewBox="0 0 232 100" fill="none" xmlns="http://www.w3.org/2000/svg">
<path d="M77.2279 27.2193L76.8252 26.8166L72.7809 22.7723L54.4389 4.44706L49.9918 0L45.5447 4.44706L27.2195 22.7723L23.5444 26.4474L22.7725 27.2193L45.5615 50.0084L31.6666 63.9033L36.1136 68.3504L50.0086 54.4555L63.9035 68.3504L68.3506 63.9033L54.4389 50.0084L77.2279 27.2193ZM31.6666 27.2193L49.9918 8.87733L68.3338 27.2193L49.9918 45.5613L31.6666 27.2193Z" fill="white"/>
<path d="M27.2193 68.3336L8.87733 50.0084L22.7723 36.1134L18.3252 31.6664L0 50.0084L4.43027 54.4387L22.7723 72.7807L27.2193 68.3336Z" fill="white"/>
<path d="M100 50.0084L81.6581 31.6664L77.2278 36.1134L91.1228 50.0084L72.7808 68.3336L77.2278 72.7807L95.553 54.4387L100 50.0084Z" fill="white"/>
<path d="M72.7806 77.2277L68.3335 72.7807L49.9915 91.1227L31.6663 72.7807L27.2192 77.2277L45.5612 95.5697L49.9915 100L54.4386 95.5697L72.7806 77.2277Z" fill="white"/>
<path d="M109.686 71.144C109.334 71.144 109.022 71.104 108.75 71.024C108.486 70.944 108.274 70.78 108.114 70.532C107.962 70.276 107.886 69.892 107.886 69.38V65.384C107.886 64.936 107.962 64.6 108.114 64.376C108.274 64.152 108.49 64.004 108.762 63.932C109.042 63.852 109.354 63.812 109.698 63.812C110.05 63.812 110.358 63.852 110.622 63.932C110.886 64.012 111.094 64.164 111.246 64.388C111.398 64.612 111.474 64.944 111.474 65.384V66.632H110.718V65.372C110.718 65.06 110.674 64.828 110.586 64.676C110.498 64.516 110.374 64.412 110.214 64.364C110.062 64.316 109.886 64.292 109.686 64.292C109.486 64.292 109.306 64.316 109.146 64.364C108.994 64.412 108.874 64.516 108.786 64.676C108.706 64.828 108.666 65.06 108.666 65.372V69.584C108.666 69.904 108.706 70.144 108.786 70.304C108.874 70.456 108.994 70.556 109.146 70.604C109.306 70.652 109.486 70.676 109.686 70.676C109.894 70.676 110.074 70.652 110.226 70.604C110.378 70.556 110.498 70.456 110.586 70.304C110.674 70.144 110.718 69.904 110.718 69.584V68.516H111.474V69.368C111.474 69.888 111.398 70.276 111.246 70.532C111.094 70.78 110.886 70.944 110.622 71.024C110.358 71.104 110.046 71.144 109.686 71.144ZM112.547 71V63.908H113.231V69.452L115.451 63.908H116.135V71H115.451V65.648L113.255 71H112.547ZM119.084 71.144C118.732 71.144 118.42 71.104 118.148 71.024C117.884 70.944 117.672 70.78 117.512 70.532C117.36 70.276 117.284 69.892 117.284 69.38V65.384C117.284 64.936 117.36 64.6 117.512 64.376C117.672 64.152 117.888 64.004 118.16 63.932C118.44 63.852 118.752 63.812 119.096 63.812C119.448 63.812 119.756 63.852 120.02 63.932C120.284 64.012 120.492 64.164 120.644 64.388C120.796 64.612 120.872 64.944 120.872 65.384V66.632H120.116V65.372C120.116 65.06 120.072 64.828 119.984 64.676C119.896 64.516 119.772 64.412 119.612 64.364C119.46 64.316 119.284 64.292 119.084 64.292C118.884 64.292 118.704 64.316 118.544 64.364C118.392 64.412 118.272 64.516 118.184 64.676C118.104 64.828 118.064 65.06 118.064 65.372V69.584C118.064 69.904 118.104 70.144 118.184 70.304C118.272 70.456 118.392 70.556 118.544 70.604C118.704 70.652 118.884 70.676 119.084 70.676C119.292 70.676 119.472 70.652 119.624 70.604C119.776 70.556 119.896 70.456 119.984 70.304C120.072 70.144 120.116 69.904 120.116 69.584V68.516H120.872V69.368C120.872 69.888 120.796 70.276 120.644 70.532C120.492 70.78 120.284 70.944 120.02 71.024C119.756 71.104 119.444 71.144 119.084 71.144ZM122.761 71V64.448H121.573V63.908H124.729V64.448H123.517V71H122.761ZM125.619 71V63.908H128.679V64.448H126.399V66.992H128.223V67.592H126.399V70.46H128.679V71H125.619ZM129.721 71V63.908H130.609L132.145 69.68L133.717 63.908H134.569V71H133.897V65.264L132.421 71H131.881L130.405 65.264V71H129.721ZM135.832 71V63.908H136.516V69.452L138.736 63.908H139.42V71H138.736V65.648L136.54 71H135.832ZM143.468 71V64.448H142.28V63.908H145.436V64.448H144.224V71H143.468ZM147.982 71.144C147.638 71.144 147.334 71.104 147.07 71.024C146.806 70.944 146.594 70.78 146.434 70.532C146.282 70.276 146.206 69.892 146.206 69.38V65.384C146.206 64.936 146.282 64.6 146.434 64.376C146.594 64.152 146.81 64.004 147.082 63.932C147.354 63.852 147.662 63.812 148.006 63.812C148.35 63.812 148.654 63.852 148.918 63.932C149.19 64.012 149.402 64.164 149.554 64.388C149.714 64.612 149.794 64.944 149.794 65.384V69.368C149.794 69.888 149.714 70.276 149.554 70.532C149.402 70.78 149.19 70.944 148.918 71.024C148.654 71.104 148.342 71.144 147.982 71.144ZM147.994 70.676C148.202 70.676 148.382 70.652 148.534 70.604C148.694 70.548 148.818 70.444 148.906 70.292C148.994 70.132 149.038 69.896 149.038 69.584V65.384C149.038 65.072 148.994 64.84 148.906 64.688C148.818 64.528 148.694 64.424 148.534 64.376C148.374 64.32 148.194 64.292 147.994 64.292C147.786 64.292 147.602 64.32 147.442 64.376C147.29 64.424 147.17 64.528 147.082 64.688C146.994 64.84 146.95 65.072 146.95 65.384V69.584C146.95 69.896 146.994 70.132 147.082 70.292C147.17 70.444 147.29 70.548 147.442 70.604C147.602 70.652 147.786 70.676 147.994 70.676ZM153.553 71V68.996C153.457 69.084 153.297 69.172 153.073 69.26C152.857 69.34 152.621 69.38 152.365 69.38C151.949 69.38 151.637 69.312 151.429 69.176C151.229 69.04 151.097 68.852 151.033 68.612C150.969 68.364 150.937 68.084 150.937 67.772V63.908H151.681V67.796C151.681 68.14 151.741 68.4 151.861 68.576C151.989 68.752 152.233 68.84 152.593 68.84C152.889 68.84 153.109 68.8 153.253 68.72C153.405 68.632 153.505 68.564 153.553 68.516V63.908H154.309V71H153.553ZM155.572 71V63.908H156.328V67.004H158.404V63.908H159.148V71H158.404V67.58H156.328V71H155.572ZM162.314 71.144C161.97 71.144 161.666 71.104 161.402 71.024C161.138 70.944 160.926 70.78 160.766 70.532C160.614 70.276 160.538 69.892 160.538 69.38V65.384C160.538 64.936 160.614 64.6 160.766 64.376C160.926 64.152 161.142 64.004 161.414 63.932C161.686 63.852 161.994 63.812 162.338 63.812C162.682 63.812 162.986 63.852 163.25 63.932C163.522 64.012 163.734 64.164 163.886 64.388C164.046 64.612 164.126 64.944 164.126 65.384V69.368C164.126 69.888 164.046 70.276 163.886 70.532C163.734 70.78 163.522 70.944 163.25 71.024C162.986 71.104 162.674 71.144 162.314 71.144ZM162.326 70.676C162.534 70.676 162.714 70.652 162.866 70.604C163.026 70.548 163.15 70.444 163.238 70.292C163.326 70.132 163.37 69.896 163.37 69.584V65.384C163.37 65.072 163.326 64.84 163.238 64.688C163.15 64.528 163.026 64.424 162.866 64.376C162.706 64.32 162.526 64.292 162.326 64.292C162.118 64.292 161.934 64.32 161.774 64.376C161.622 64.424 161.502 64.528 161.414 64.688C161.326 64.84 161.282 65.072 161.282 65.384V69.584C161.282 69.896 161.326 70.132 161.414 70.292C161.502 70.444 161.622 70.548 161.774 70.604C161.934 70.652 162.118 70.676 162.326 70.676ZM165.281 71V63.908H168.377V64.46H166.073V71H165.281ZM170.986 71.144C170.642 71.144 170.338 71.104 170.074 71.024C169.81 70.944 169.598 70.78 169.438 70.532C169.286 70.276 169.21 69.892 169.21 69.38V65.384C169.21 64.936 169.286 64.6 169.438 64.376C169.598 64.152 169.814 64.004 170.086 63.932C170.358 63.852 170.666 63.812 171.01 63.812C171.354 63.812 171.658 63.852 171.922 63.932C172.194 64.012 172.406 64.164 172.558 64.388C172.718 64.612 172.798 64.944 172.798 65.384V69.368C172.798 69.888 172.718 70.276 172.558 70.532C172.406 70.78 172.194 70.944 171.922 71.024C171.658 71.104 171.346 71.144 170.986 71.144ZM170.998 70.676C171.206 70.676 171.386 70.652 171.538 70.604C171.698 70.548 171.822 70.444 171.91 70.292C171.998 70.132 172.042 69.896 172.042 69.584V65.384C172.042 65.072 171.998 64.84 171.91 64.688C171.822 64.528 171.698 64.424 171.538 64.376C171.378 64.32 171.198 64.292 170.998 64.292C170.79 64.292 170.606 64.32 170.446 64.376C170.294 64.424 170.174 64.528 170.086 64.688C169.998 64.84 169.954 65.072 169.954 65.384V69.584C169.954 69.896 169.998 70.132 170.086 70.292C170.174 70.444 170.294 70.548 170.446 70.604C170.606 70.652 170.79 70.676 170.998 70.676ZM177.956 71.084C177.516 71.084 177.16 71.012 176.888 70.868C176.616 70.716 176.416 70.508 176.288 70.244C176.16 69.972 176.096 69.668 176.096 69.332V68.612H176.876V69.224C176.876 69.632 176.964 69.952 177.14 70.184C177.324 70.408 177.596 70.524 177.956 70.532C178.284 70.532 178.544 70.424 178.736 70.208C178.936 69.992 179.036 69.7 179.036 69.332V68.672C179.036 68.312 178.92 68.04 178.688 67.856C178.464 67.672 178.152 67.572 177.752 67.556H177.056V67.076H177.764C177.948 67.076 178.124 67.044 178.292 66.98C178.46 66.908 178.596 66.808 178.7 66.68C178.804 66.576 178.876 66.464 178.916 66.344C178.956 66.216 178.976 66.08 178.976 65.936V65.516C178.976 65.212 178.896 64.956 178.736 64.748C178.576 64.532 178.316 64.424 177.956 64.424C177.588 64.424 177.324 64.536 177.164 64.76C177.004 64.984 176.924 65.272 176.924 65.624V66.044H176.144V65.516C176.144 64.996 176.288 64.592 176.576 64.304C176.872 64.016 177.332 63.872 177.956 63.872C178.604 63.872 179.068 64.012 179.348 64.292C179.636 64.564 179.78 64.956 179.78 65.468V65.828C179.78 66.244 179.676 66.58 179.468 66.836C179.26 67.084 178.988 67.252 178.652 67.34C179.036 67.404 179.328 67.572 179.528 67.844C179.728 68.108 179.828 68.444 179.828 68.852V69.332C179.828 69.684 179.768 69.992 179.648 70.256C179.528 70.52 179.332 70.724 179.06 70.868C178.788 71.012 178.42 71.084 177.956 71.084ZM181.154 71V63.908H184.214V64.448H181.934V66.992H183.758V67.592H181.934V70.46H184.214V71H181.154ZM185.256 71V63.908H186.144L187.68 69.68L189.252 63.908H190.104V71H189.432V65.264L187.956 71H187.416L185.94 65.264V71H185.256ZM191.055 71V70.568C191.207 70.568 191.339 70.496 191.451 70.352C191.563 70.2 191.627 69.976 191.643 69.68L192.039 63.908H195.423V71H194.667V64.46H192.783L192.387 69.884C192.379 69.996 192.363 70.116 192.339 70.244C192.323 70.364 192.287 70.48 192.231 70.592C192.175 70.696 192.087 70.788 191.967 70.868C191.855 70.948 191.699 70.992 191.499 71H191.055ZM196.694 71V63.908H199.754V64.448H197.474V66.992H199.298V67.592H197.474V70.46H199.754V71H196.694ZM200.795 71V63.908H202.991C203.399 63.908 203.727 64.004 203.975 64.196C204.223 64.38 204.347 64.676 204.347 65.084V66.392C204.347 66.664 204.307 66.92 204.227 67.16C204.147 67.392 203.999 67.58 203.783 67.724C203.567 67.868 203.255 67.94 202.847 67.94H201.575V71H200.795ZM201.575 67.496H202.619C202.939 67.496 203.179 67.4 203.339 67.208C203.507 67.008 203.591 66.704 203.591 66.296V65.372C203.591 65.02 203.515 64.764 203.363 64.604C203.211 64.436 203.027 64.352 202.811 64.352H201.575V67.496ZM207.057 71.144C206.713 71.144 206.409 71.104 206.145 71.024C205.881 70.944 205.669 70.78 205.509 70.532C205.357 70.276 205.281 69.892 205.281 69.38V65.384C205.281 64.936 205.357 64.6 205.509 64.376C205.669 64.152 205.885 64.004 206.157 63.932C206.429 63.852 206.737 63.812 207.081 63.812C207.425 63.812 207.729 63.852 207.993 63.932C208.265 64.012 208.477 64.164 208.629 64.388C208.789 64.612 208.869 64.944 208.869 65.384V69.368C208.869 69.888 208.789 70.276 208.629 70.532C208.477 70.78 208.265 70.944 207.993 71.024C207.729 71.104 207.417 71.144 207.057 71.144ZM207.069 70.676C207.277 70.676 207.457 70.652 207.609 70.604C207.769 70.548 207.893 70.444 207.981 70.292C208.069 70.132 208.113 69.896 208.113 69.584V65.384C208.113 65.072 208.069 64.84 207.981 64.688C207.893 64.528 207.769 64.424 207.609 64.376C207.449 64.32 207.269 64.292 207.069 64.292C206.861 64.292 206.677 64.32 206.517 64.376C206.365 64.424 206.245 64.528 206.157 64.688C206.069 64.84 206.025 65.072 206.025 65.384V69.584C206.025 69.896 206.069 70.132 206.157 70.292C206.245 70.444 206.365 70.548 206.517 70.604C206.677 70.652 206.861 70.676 207.069 70.676ZM210.276 71V63.908H213.456V64.46H211.02V65.78H212.208C212.544 65.78 212.816 65.832 213.024 65.936C213.24 66.04 213.396 66.204 213.492 66.428C213.596 66.644 213.648 66.928 213.648 67.28V69.236C213.648 69.572 213.616 69.852 213.552 70.076C213.496 70.3 213.408 70.48 213.288 70.616C213.168 70.752 213.012 70.852 212.82 70.916C212.636 70.972 212.412 71 212.148 71H210.276ZM212.004 70.568C212.26 70.568 212.452 70.52 212.58 70.424C212.708 70.32 212.792 70.18 212.832 70.004C212.88 69.828 212.904 69.632 212.904 69.416V67.388C212.904 67.188 212.884 67.004 212.844 66.836C212.804 66.66 212.72 66.52 212.592 66.416C212.464 66.312 212.26 66.26 211.98 66.26H211.02V70.568H212.004ZM216.573 71.144C216.221 71.144 215.909 71.104 215.637 71.024C215.373 70.944 215.161 70.78 215.001 70.532C214.849 70.276 214.773 69.892 214.773 69.38V65.384C214.773 64.936 214.849 64.6 215.001 64.376C215.161 64.152 215.377 64.004 215.649 63.932C215.929 63.852 216.241 63.812 216.585 63.812C216.937 63.812 217.245 63.852 217.509 63.932C217.773 64.012 217.981 64.164 218.133 64.388C218.285 64.612 218.361 64.944 218.361 65.384V66.632H217.605V65.372C217.605 65.06 217.561 64.828 217.473 64.676C217.385 64.516 217.261 64.412 217.101 64.364C216.949 64.316 216.773 64.292 216.573 64.292C216.373 64.292 216.193 64.316 216.033 64.364C215.881 64.412 215.761 64.516 215.673 64.676C215.593 64.828 215.553 65.06 215.553 65.372V69.584C215.553 69.904 215.593 70.144 215.673 70.304C215.761 70.456 215.881 70.556 216.033 70.604C216.193 70.652 216.373 70.676 216.573 70.676C216.781 70.676 216.961 70.652 217.113 70.604C217.265 70.556 217.385 70.456 217.473 70.304C217.561 70.144 217.605 69.904 217.605 69.584V68.516H218.361V69.368C218.361 69.888 218.285 70.276 218.133 70.532C217.981 70.78 217.773 70.944 217.509 71.024C217.245 71.104 216.933 71.144 216.573 71.144ZM220.25 71V64.448H219.062V63.908H222.218V64.448H221.006V71H220.25ZM223.108 71V63.908H225.304C225.696 63.908 226.016 64.004 226.264 64.196C226.512 64.38 226.636 64.676 226.636 65.084V65.948C226.636 66.172 226.604 66.372 226.54 66.548C226.476 66.716 226.388 66.852 226.276 66.956C226.164 67.068 226.028 67.144 225.868 67.184C225.716 67.216 225.588 67.236 225.484 67.244V67.22C225.644 67.22 225.796 67.24 225.94 67.28C226.092 67.312 226.22 67.38 226.324 67.484C226.444 67.596 226.536 67.74 226.6 67.916C226.672 68.084 226.708 68.284 226.708 68.516V69.548C226.708 69.948 226.644 70.252 226.516 70.46C226.388 70.668 226.208 70.812 225.976 70.892C225.752 70.964 225.484 71 225.172 71H223.108ZM223.864 70.568H225.04C225.224 70.568 225.384 70.544 225.52 70.496C225.656 70.44 225.76 70.336 225.832 70.184C225.912 70.024 225.952 69.792 225.952 69.488V68.516C225.952 68.132 225.852 67.88 225.652 67.76C225.46 67.632 225.22 67.568 224.932 67.568H223.864V70.568ZM223.864 67.064H224.908C225.228 67.064 225.472 66.976 225.64 66.8C225.816 66.624 225.904 66.368 225.904 66.032V65.216C225.904 64.92 225.824 64.704 225.664 64.568C225.512 64.424 225.324 64.352 225.1 64.352H223.864V67.064ZM227.477 71L229.049 63.908H230.021L231.569 71H230.753L230.369 69.356H228.629L228.269 71H227.477ZM228.653 68.936H230.357L229.517 64.832L228.653 68.936Z" fill="white"/>
<path d="M146.531 48.5918C146.531 49.7676 146.312 50.8682 145.875 51.8936C145.438 52.9053 144.836 53.7939 144.07 54.5596C143.318 55.3115 142.43 55.9062 141.404 56.3438C140.393 56.7812 139.306 57 138.144 57H112.591V52.7959H138.144C138.731 52.7959 139.278 52.6865 139.784 52.4678C140.29 52.249 140.728 51.9482 141.097 51.5654C141.479 51.1826 141.78 50.7383 141.999 50.2324C142.218 49.7129 142.327 49.166 142.327 48.5918C142.327 48.0176 142.218 47.4775 141.999 46.9717C141.78 46.4658 141.479 46.0215 141.097 45.6387C140.728 45.2559 140.29 44.9551 139.784 44.7363C139.278 44.5176 138.731 44.4082 138.144 44.4082H120.999C119.851 44.4082 118.764 44.1895 117.738 43.752C116.713 43.3145 115.817 42.7197 115.052 41.9678C114.3 41.2021 113.698 40.3066 113.247 39.2812C112.81 38.2559 112.591 37.1621 112.591 36C112.591 34.8516 112.81 33.7646 113.247 32.7393C113.698 31.7139 114.3 30.8252 115.052 30.0732C115.817 29.3076 116.713 28.7061 117.738 28.2686C118.764 27.8174 119.851 27.5918 120.999 27.5918H144.439V31.7959H120.999C120.425 31.7959 119.878 31.9053 119.358 32.124C118.853 32.3428 118.408 32.6436 118.025 33.0264C117.643 33.4092 117.342 33.8604 117.123 34.3799C116.904 34.8857 116.795 35.4258 116.795 36C116.795 36.5742 116.904 37.1211 117.123 37.6406C117.342 38.1465 117.643 38.5908 118.025 38.9736C118.408 39.3564 118.853 39.6572 119.358 39.876C119.878 40.0947 120.425 40.2041 120.999 40.2041H138.144C139.306 40.2041 140.393 40.4297 141.404 40.8809C142.43 41.3184 143.318 41.9199 144.07 42.6855C144.836 43.4375 145.438 44.3262 145.875 45.3516C146.312 46.3633 146.531 47.4434 146.531 48.5918ZM186.132 42.2959C186.132 44.333 185.804 46.2471 185.147 48.0381C184.505 49.8291 183.589 51.3877 182.399 52.7139C181.21 54.04 179.781 55.0859 178.113 55.8516C176.459 56.6172 174.62 57 172.597 57H157.77V52.7959H172.597C174.046 52.7959 175.345 52.5225 176.493 51.9756C177.655 51.4287 178.633 50.6836 179.426 49.7402C180.232 48.7832 180.848 47.6689 181.271 46.3975C181.709 45.1123 181.928 43.7451 181.928 42.2959C181.928 40.8467 181.709 39.4863 181.271 38.2148C180.848 36.9434 180.232 35.8359 179.426 34.8926C178.633 33.9355 177.655 33.1836 176.493 32.6367C175.345 32.0762 174.046 31.7959 172.597 31.7959H155.678V57H151.474V27.5918H172.597C174.62 27.5918 176.459 27.9814 178.113 28.7607C179.781 29.5264 181.21 30.5791 182.399 31.9189C183.589 33.2451 184.505 34.8037 185.147 36.5947C185.804 38.3721 186.132 40.2725 186.132 42.2959ZM224.933 57H220.729V48.5918H197.268V44.4082H220.729V31.7959H205.655C204.22 31.7959 202.866 32.0762 201.595 32.6367C200.323 33.1836 199.216 33.9355 198.272 34.8926C197.329 35.8359 196.577 36.9434 196.017 38.2148C195.47 39.4863 195.196 40.8467 195.196 42.2959V57H190.992V42.2959C190.992 40.9424 191.163 39.6436 191.505 38.3994C191.86 37.1416 192.353 35.9727 192.981 34.8926C193.624 33.7988 194.39 32.8076 195.278 31.9189C196.181 31.0166 197.172 30.2441 198.252 29.6016C199.346 28.959 200.515 28.4668 201.759 28.125C203.003 27.7695 204.302 27.5918 205.655 27.5918H224.933V57Z" fill="white"/>
</svg>
