<svg width="60" height="60" viewBox="0 0 60 60" fill="none" xmlns="http://www.w3.org/2000/svg">
<path d="M46.3366 16.3316L46.095 16.09L43.6684 13.6634L32.6632 2.66823L29.9949 0L27.3267 2.66823L16.3316 13.6634L14.1265 15.8684L13.6633 16.3316L27.3368 30.005L18.9998 38.342L21.668 41.0102L30.005 32.6733L38.342 41.0102L41.0102 38.342L32.6632 30.005L46.3366 16.3316ZM18.9998 16.3316L29.9949 5.3264L41.0001 16.3316L29.9949 27.3368L18.9998 16.3316Z" fill="white"/>
<path d="M16.3316 41.0001L5.3264 30.005L13.6634 21.668L10.9951 18.9998L0 30.005L2.65816 32.6631L13.6634 43.6683L16.3316 41.0001Z" fill="white"/>
<path d="M59.9999 30.005L48.9947 18.9998L46.3366 21.668L54.6735 30.005L43.6683 41.0001L46.3366 43.6683L57.3317 32.6631L59.9999 30.005Z" fill="white"/>
<path d="M43.6685 46.3366L41.0002 43.6684L29.995 54.6736L18.9999 43.6684L16.3317 46.3366L27.3369 57.3418L29.995 60L32.6633 57.3418L43.6685 46.3366Z" fill="white"/>
</svg>
