<svg width="232" height="100" viewBox="0 0 232 100" fill="none" xmlns="http://www.w3.org/2000/svg">
<path d="M77.2279 27.2193L76.8252 26.8166L72.7809 22.7723L54.4389 4.44706L49.9918 0L45.5447 4.44706L27.2195 22.7723L23.5444 26.4474L22.7725 27.2193L45.5615 50.0084L31.6666 63.9033L36.1136 68.3504L50.0086 54.4555L63.9035 68.3504L68.3506 63.9033L54.4389 50.0084L77.2279 27.2193ZM31.6666 27.2193L49.9918 8.87733L68.3338 27.2193L49.9918 45.5613L31.6666 27.2193Z" fill="white"/>
<path d="M27.2193 68.3336L8.87733 50.0084L22.7723 36.1134L18.3252 31.6664L0 50.0084L4.43027 54.4387L22.7723 72.7807L27.2193 68.3336Z" fill="white"/>
<path d="M100 50.0084L81.6581 31.6664L77.2278 36.1134L91.1228 50.0084L72.7808 68.3336L77.2278 72.7807L95.553 54.4387L100 50.0084Z" fill="white"/>
<path d="M72.7806 77.2277L68.3335 72.7807L49.9915 91.1227L31.6663 72.7807L27.2192 77.2277L45.5612 95.5697L49.9915 100L54.4386 95.5697L72.7806 77.2277Z" fill="white"/>
<path d="M146.531 56.0918C146.531 57.2676 146.312 58.3682 145.875 59.3936C145.438 60.4053 144.836 61.2939 144.07 62.0596C143.318 62.8115 142.43 63.4062 141.404 63.8438C140.393 64.2812 139.306 64.5 138.144 64.5H112.591V60.2959H138.144C138.731 60.2959 139.278 60.1865 139.784 59.9678C140.29 59.749 140.728 59.4482 141.097 59.0654C141.479 58.6826 141.78 58.2383 141.999 57.7324C142.218 57.2129 142.327 56.666 142.327 56.0918C142.327 55.5176 142.218 54.9775 141.999 54.4717C141.78 53.9658 141.479 53.5215 141.097 53.1387C140.728 52.7559 140.29 52.4551 139.784 52.2363C139.278 52.0176 138.731 51.9082 138.144 51.9082H120.999C119.851 51.9082 118.764 51.6895 117.738 51.252C116.713 50.8145 115.817 50.2197 115.052 49.4678C114.3 48.7021 113.698 47.8066 113.247 46.7812C112.81 45.7559 112.591 44.6621 112.591 43.5C112.591 42.3516 112.81 41.2646 113.247 40.2393C113.698 39.2139 114.3 38.3252 115.052 37.5732C115.817 36.8076 116.713 36.2061 117.738 35.7686C118.764 35.3174 119.851 35.0918 120.999 35.0918H144.439V39.2959H120.999C120.425 39.2959 119.878 39.4053 119.358 39.624C118.853 39.8428 118.408 40.1436 118.025 40.5264C117.643 40.9092 117.342 41.3604 117.123 41.8799C116.904 42.3857 116.795 42.9258 116.795 43.5C116.795 44.0742 116.904 44.6211 117.123 45.1406C117.342 45.6465 117.643 46.0908 118.025 46.4736C118.408 46.8564 118.853 47.1572 119.358 47.376C119.878 47.5947 120.425 47.7041 120.999 47.7041H138.144C139.306 47.7041 140.393 47.9297 141.404 48.3809C142.43 48.8184 143.318 49.4199 144.07 50.1855C144.836 50.9375 145.438 51.8262 145.875 52.8516C146.312 53.8633 146.531 54.9434 146.531 56.0918ZM186.132 49.7959C186.132 51.833 185.804 53.7471 185.147 55.5381C184.505 57.3291 183.589 58.8877 182.399 60.2139C181.21 61.54 179.781 62.5859 178.113 63.3516C176.459 64.1172 174.62 64.5 172.597 64.5H157.77V60.2959H172.597C174.046 60.2959 175.345 60.0225 176.493 59.4756C177.655 58.9287 178.633 58.1836 179.426 57.2402C180.232 56.2832 180.848 55.1689 181.271 53.8975C181.709 52.6123 181.928 51.2451 181.928 49.7959C181.928 48.3467 181.709 46.9863 181.271 45.7148C180.848 44.4434 180.232 43.3359 179.426 42.3926C178.633 41.4355 177.655 40.6836 176.493 40.1367C175.345 39.5762 174.046 39.2959 172.597 39.2959H155.678V64.5H151.474V35.0918H172.597C174.62 35.0918 176.459 35.4814 178.113 36.2607C179.781 37.0264 181.21 38.0791 182.399 39.4189C183.589 40.7451 184.505 42.3037 185.147 44.0947C185.804 45.8721 186.132 47.7725 186.132 49.7959ZM224.933 64.5H220.729V56.0918H197.268V51.9082H220.729V39.2959H205.655C204.22 39.2959 202.866 39.5762 201.595 40.1367C200.323 40.6836 199.216 41.4355 198.272 42.3926C197.329 43.3359 196.577 44.4434 196.017 45.7148C195.47 46.9863 195.196 48.3467 195.196 49.7959V64.5H190.992V49.7959C190.992 48.4424 191.163 47.1436 191.505 45.8994C191.86 44.6416 192.353 43.4727 192.981 42.3926C193.624 41.2988 194.39 40.3076 195.278 39.4189C196.181 38.5166 197.172 37.7441 198.252 37.1016C199.346 36.459 200.515 35.9668 201.759 35.625C203.003 35.2695 204.302 35.0918 205.655 35.0918H224.933V64.5Z" fill="white"/>
</svg>
