<svg width="232" height="100" viewBox="0 0 232 100" fill="none" xmlns="http://www.w3.org/2000/svg">
<path d="M77.2279 27.2193L76.8252 26.8166L72.7809 22.7723L54.4389 4.44706L49.9918 0L45.5447 4.44706L27.2195 22.7723L23.5444 26.4474L22.7725 27.2193L45.5615 50.0084L31.6666 63.9033L36.1136 68.3504L50.0086 54.4555L63.9035 68.3504L68.3506 63.9033L54.4389 50.0084L77.2279 27.2193ZM31.6666 27.2193L49.9918 8.87733L68.3338 27.2193L49.9918 45.5613L31.6666 27.2193Z" fill="white"/>
<path d="M27.2193 68.3336L8.87733 50.0084L22.7723 36.1134L18.3252 31.6664L0 50.0084L4.43027 54.4387L22.7723 72.7807L27.2193 68.3336Z" fill="white"/>
<path d="M100 50.0084L81.6581 31.6664L77.2278 36.1134L91.1228 50.0084L72.7808 68.3336L77.2278 72.7807L95.553 54.4387L100 50.0084Z" fill="white"/>
<path d="M72.7806 77.2277L68.3335 72.7807L49.9915 91.1227L31.6663 72.7807L27.2192 77.2277L45.5612 95.5697L49.9915 100L54.4386 95.5697L72.7806 77.2277Z" fill="white"/>
<path d="M146.531 48.5918C146.531 49.7676 146.312 50.8682 145.875 51.8936C145.438 52.9053 144.836 53.7939 144.07 54.5596C143.318 55.3115 142.43 55.9062 141.404 56.3438C140.393 56.7812 139.306 57 138.144 57H112.591V52.7959H138.144C138.731 52.7959 139.278 52.6865 139.784 52.4678C140.29 52.249 140.728 51.9482 141.097 51.5654C141.479 51.1826 141.78 50.7383 141.999 50.2324C142.218 49.7129 142.327 49.166 142.327 48.5918C142.327 48.0176 142.218 47.4775 141.999 46.9717C141.78 46.4658 141.479 46.0215 141.097 45.6387C140.728 45.2559 140.29 44.9551 139.784 44.7363C139.278 44.5176 138.731 44.4082 138.144 44.4082H120.999C119.851 44.4082 118.764 44.1895 117.738 43.752C116.713 43.3145 115.817 42.7197 115.052 41.9678C114.3 41.2021 113.698 40.3066 113.247 39.2812C112.81 38.2559 112.591 37.1621 112.591 36C112.591 34.8516 112.81 33.7646 113.247 32.7393C113.698 31.7139 114.3 30.8252 115.052 30.0732C115.817 29.3076 116.713 28.7061 117.738 28.2686C118.764 27.8174 119.851 27.5918 120.999 27.5918H144.439V31.7959H120.999C120.425 31.7959 119.878 31.9053 119.358 32.124C118.853 32.3428 118.408 32.6436 118.025 33.0264C117.643 33.4092 117.342 33.8604 117.123 34.3799C116.904 34.8857 116.795 35.4258 116.795 36C116.795 36.5742 116.904 37.1211 117.123 37.6406C117.342 38.1465 117.643 38.5908 118.025 38.9736C118.408 39.3564 118.853 39.6572 119.358 39.876C119.878 40.0947 120.425 40.2041 120.999 40.2041H138.144C139.306 40.2041 140.393 40.4297 141.404 40.8809C142.43 41.3184 143.318 41.9199 144.07 42.6855C144.836 43.4375 145.438 44.3262 145.875 45.3516C146.312 46.3633 146.531 47.4434 146.531 48.5918ZM186.132 42.2959C186.132 44.333 185.804 46.2471 185.147 48.0381C184.505 49.8291 183.589 51.3877 182.399 52.7139C181.21 54.04 179.781 55.0859 178.113 55.8516C176.459 56.6172 174.62 57 172.597 57H157.77V52.7959H172.597C174.046 52.7959 175.345 52.5225 176.493 51.9756C177.655 51.4287 178.633 50.6836 179.426 49.7402C180.232 48.7832 180.848 47.6689 181.271 46.3975C181.709 45.1123 181.928 43.7451 181.928 42.2959C181.928 40.8467 181.709 39.4863 181.271 38.2148C180.848 36.9434 180.232 35.8359 179.426 34.8926C178.633 33.9355 177.655 33.1836 176.493 32.6367C175.345 32.0762 174.046 31.7959 172.597 31.7959H155.678V57H151.474V27.5918H172.597C174.62 27.5918 176.459 27.9814 178.113 28.7607C179.781 29.5264 181.21 30.5791 182.399 31.9189C183.589 33.2451 184.505 34.8037 185.147 36.5947C185.804 38.3721 186.132 40.2725 186.132 42.2959ZM224.933 57H220.729V48.5918H197.268V44.4082H220.729V31.7959H205.655C204.22 31.7959 202.866 32.0762 201.595 32.6367C200.323 33.1836 199.216 33.9355 198.272 34.8926C197.329 35.8359 196.577 36.9434 196.017 38.2148C195.47 39.4863 195.196 40.8467 195.196 42.2959V57H190.992V42.2959C190.992 40.9424 191.163 39.6436 191.505 38.3994C191.86 37.1416 192.353 35.9727 192.981 34.8926C193.624 33.7988 194.39 32.8076 195.278 31.9189C196.181 31.0166 197.172 30.2441 198.252 29.6016C199.346 28.959 200.515 28.4668 201.759 28.125C203.003 27.7695 204.302 27.5918 205.655 27.5918H224.933V57Z" fill="white"/>
</svg>
