<svg width="73" height="72" viewBox="0 0 73 72" fill="none" xmlns="http://www.w3.org/2000/svg">
<path d="M51.0107 19.5143L50.4381 20.9007L51.5958 21.3789L52.2728 20.325L51.0107 19.5143ZM20.3701 56.0925L21.819 56.4807L22.1036 55.4187L21.1765 54.8277L20.3701 56.0925ZM18.5835 62.7603L20.0324 63.1486L18.5835 62.7603ZM19.9977 65.2098L19.6095 66.6587H19.6095L19.9977 65.2098ZM25.7933 66.7627L25.405 68.2116L25.405 68.2116L25.7933 66.7627ZM28.2427 65.3485L26.7939 64.9603L28.2427 65.3485ZM29.673 60.0108L30.0291 58.5536L28.6038 58.2053L28.2241 59.6225L29.673 60.0108ZM46.3987 59.9932L47.8476 59.6049L47.467 58.1846L46.0394 58.5368L46.3987 59.9932ZM47.8286 65.3295L49.2774 64.9412L49.2774 64.9412L47.8286 65.3295ZM50.278 66.7437L49.8898 65.2948V65.2948L50.278 66.7437ZM56.0736 65.1908L55.6854 63.7419H55.6854L56.0736 65.1908ZM57.4878 62.7413L56.0389 63.1295H56.0389L57.4878 62.7413ZM55.6951 56.0508L54.8852 54.7882L53.9625 55.3801L54.2462 56.439L55.6951 56.0508ZM64.0912 47V45.5H63.1617L62.748 46.3324L64.0912 47ZM65.5383 35L64.0777 35.3415L64.3485 36.5H65.5383V35ZM60.0216 25.4111L58.7638 24.5939L58.1015 25.6132L58.9614 26.4723L60.0216 25.4111ZM63.5 15.5227L64.3999 14.3226V14.3226L63.5 15.5227ZM38 18.5C42.5044 18.5 46.7361 19.3716 50.4381 20.9007L51.5834 18.1279C47.5106 16.4456 42.8891 15.5 38 15.5V18.5ZM11.5 39C11.5 27.995 23.0073 18.5 38 18.5V15.5C22.0647 15.5 8.5 25.7045 8.5 39H11.5ZM21.1765 54.8277C15.1743 51.001 11.5 45.2724 11.5 39H8.5C8.5 46.5285 12.9124 53.1168 19.5638 57.3573L21.1765 54.8277ZM20.0324 63.1486L21.819 56.4807L18.9212 55.7042L17.1346 62.3721L20.0324 63.1486ZM20.3859 63.7609C20.1192 63.6895 19.9609 63.4153 20.0324 63.1486L17.1346 62.3721C16.6343 64.2392 17.7423 66.1584 19.6095 66.6587L20.3859 63.7609ZM26.1815 65.3138L20.3859 63.7609L19.6095 66.6587L25.405 68.2116L26.1815 65.3138ZM26.7939 64.9603C26.7224 65.227 26.4482 65.3853 26.1815 65.3138L25.405 68.2116C27.2722 68.7119 29.1913 67.6039 29.6916 65.7367L26.7939 64.9603ZM28.2241 59.6225L26.7939 64.9603L29.6916 65.7368L31.1219 60.399L28.2241 59.6225ZM38 59.5C35.2195 59.5 32.5423 59.1679 30.0291 58.5536L29.3169 61.4679C32.0646 62.1394 34.981 62.5 38 62.5V59.5ZM46.0394 58.5368C43.5063 59.1618 40.8057 59.5 38 59.5V62.5C41.0464 62.5 43.9884 62.1328 46.758 61.4495L46.0394 58.5368ZM44.9498 60.3814L46.3797 65.7177L49.2774 64.9412L47.8476 59.6049L44.9498 60.3814ZM46.3797 65.7177C46.88 67.5848 48.7991 68.6929 50.6663 68.1926L49.8898 65.2948C49.6231 65.3663 49.3489 65.208 49.2774 64.9412L46.3797 65.7177ZM50.6663 68.1926L56.4618 66.6397L55.6854 63.7419L49.8898 65.2948L50.6663 68.1926ZM56.4618 66.6397C58.329 66.1394 59.437 64.2202 58.9367 62.353L56.0389 63.1295C56.1104 63.3962 55.9521 63.6704 55.6854 63.7419L56.4618 66.6397ZM58.9367 62.353L57.144 55.6625L54.2462 56.439L56.0389 63.1295L58.9367 62.353ZM62.748 46.3324C61.1148 49.6182 58.3983 52.5348 54.8852 54.7882L56.505 57.3133C60.408 54.8097 63.5269 51.5055 65.4344 47.6676L62.748 46.3324ZM64.0912 48.5H69V45.5H64.0912V48.5ZM69 48.5C70.933 48.5 72.5 46.933 72.5 45H69.5C69.5 45.2761 69.2761 45.5 69 45.5V48.5ZM72.5 45V37H69.5V45H72.5ZM72.5 37C72.5 35.067 70.933 33.5 69 33.5V36.5C69.2761 36.5 69.5 36.7239 69.5 37H72.5ZM69 33.5H65.5383V36.5H69V33.5ZM58.9614 26.4723C61.5371 29.0455 63.3141 32.075 64.0777 35.3415L66.9989 34.6585C66.0919 30.7788 64.0008 27.2663 61.0818 24.3499L58.9614 26.4723ZM61.2794 26.2283C62.2049 24.8038 63.3832 22.4318 64.1989 20.3163C64.606 19.2604 64.9502 18.1986 65.1176 17.3096C65.1999 16.8724 65.2557 16.3959 65.2197 15.9474C65.1883 15.5562 65.0578 14.816 64.3999 14.3226L62.6001 16.7227C62.2067 16.4277 62.2193 16.0629 62.2293 16.1872C62.2347 16.2543 62.2299 16.4332 62.1694 16.7545C62.0512 17.3824 61.7806 18.2492 61.3997 19.237C60.6395 21.2088 59.5496 23.3843 58.7638 24.5939L61.2794 26.2283ZM64.3999 14.3226C63.9572 13.9906 63.4232 13.8073 62.9457 13.6977C62.4453 13.5829 61.8856 13.5221 61.3026 13.5051C60.1358 13.4709 58.7636 13.6086 57.37 13.9333C54.6422 14.5687 51.4794 16.0094 49.7487 18.7036L52.2728 20.325C53.3925 18.582 55.6557 17.413 58.0507 16.855C59.2185 16.583 60.3318 16.478 61.2149 16.5038C61.6568 16.5167 62.0131 16.5617 62.2747 16.6217C62.5593 16.687 62.6336 16.7478 62.6001 16.7227L64.3999 14.3226Z" fill="#313E57"/>
<circle cx="54" cy="35" r="2" fill="#D9C07E" stroke="#313E57" stroke-width="3"/>
<path fill-rule="evenodd" clip-rule="evenodd" d="M43.3851 20.7405C44.4095 19.0694 45 17.1037 45 15C45 8.92487 40.0751 4 34 4C27.9249 4 23 8.92487 23 15C23 17.6449 23.9335 20.0718 25.489 21.9692C28.7994 20.7094 32.54 20 36.5 20C38.8905 20 41.201 20.2585 43.3851 20.7405Z" fill="#D9C07E"/>
<path d="M14 27.5C14 26.5 13.4999 23 9.00007 23C4 23 2.00007 32 6.00007 32C10.0001 32 8.5 22.5 2 22.5" stroke="#313E57" stroke-width="3" stroke-linecap="round"/>
</svg>
