<svg width="24" height="24" viewBox="0 0 24 24" fill="none" xmlns="http://www.w3.org/2000/svg">
<g clip-path="url(#clip0_819_630)">
<path fill-rule="evenodd" clip-rule="evenodd" d="M11.9663 0.338013C12.8114 0.338013 13.5212 1.04787 13.5212 1.92674V7.77463C13.5212 8.65351 12.8114 9.36337 11.9325 9.36337C11.0536 9.36337 10.3438 8.65351 10.3438 7.77463V1.92674C10.3776 1.04787 11.0874 0.338013 11.9663 0.338013Z" fill="#00A1E4"/>
<path fill-rule="evenodd" clip-rule="evenodd" d="M0.0676023 8.95766C0.338025 8.1464 1.2169 7.67316 2.06197 7.94358L7.60563 9.73513C8.4169 10.0056 8.89014 10.8844 8.61972 11.7295C8.34929 12.5408 7.47042 13.014 6.62535 12.7436L1.08169 10.952C0.270419 10.6816 -0.20282 9.80273 0.0676023 8.95766Z" fill="#00A1E4"/>
<path fill-rule="evenodd" clip-rule="evenodd" d="M4.59713 22.9183C3.88727 22.4113 3.75206 21.431 4.25911 20.7211L7.70699 15.9887C8.21403 15.2789 9.19432 15.1437 9.90418 15.6507C10.614 16.1577 10.7492 17.138 10.2422 17.8479L6.79432 22.5803C6.28727 23.2901 5.30699 23.4254 4.59713 22.9183Z" fill="#00A1E4"/>
<path fill-rule="evenodd" clip-rule="evenodd" d="M19.3015 22.9183C18.5916 23.4253 17.6113 23.2563 17.1043 22.5802L13.6564 17.8478C13.1493 17.138 13.3184 16.1577 13.9944 15.6507C14.7043 15.1436 15.6846 15.3126 16.1916 15.9887L19.6395 20.7211C20.1465 21.4309 19.9775 22.4112 19.3015 22.9183Z" fill="#00A1E4"/>
<path fill-rule="evenodd" clip-rule="evenodd" d="M23.831 8.95766C24.1014 9.76893 23.6282 10.6816 22.8169 10.952L17.2395 12.7436C16.4282 13.014 15.5155 12.5408 15.2451 11.7295C14.9747 10.9182 15.4479 10.0056 16.2592 9.73513L21.8028 7.94358C22.6817 7.67316 23.5606 8.1464 23.831 8.95766Z" fill="#00A1E4"/>
</g>
<defs>
<clipPath id="clip0_819_630">
<rect width="24" height="24" fill="white"/>
</clipPath>
</defs>
</svg>
