<svg width="24" height="24" viewBox="0 0 24 24" fill="none" xmlns="http://www.w3.org/2000/svg">
<path fill-rule="evenodd" clip-rule="evenodd" d="M16.6204 0.938547C14.498 1.40782 12.898 3.35196 12.898 5.69832C12.898 5.76536 12.898 5.79888 12.898 5.86592C16.2612 6.60335 17.9592 8.9162 17.9592 12C17.9592 15.4525 15.2163 18.2682 11.8857 18.2682C8.52245 18.2682 5.42041 15.3855 5.42041 11.095C5.42041 5.86592 9.76326 0.972067 15.9347 0.804469C16.0327 0.804469 16.2286 0.804469 16.3918 0.804469C15.0204 0.301676 13.551 0 11.9837 0C5.38775 0 0 5.36313 0 12C0 18.6369 5.38775 24 11.9837 24C18.6122 24 23.9673 18.6369 23.9673 12C24 7.00559 20.9633 2.7486 16.6204 0.938547Z" fill="#EE4455"/>
</svg>
